<?xml version="1.0" standalone="no"?>
<!DOCTYPE svg PUBLIC "-//W3C//DTD SVG 1.1//EN" "http://www.w3.org/Graphics/SVG/1.1/DTD/svg11.dtd"><svg t="1675137252338"
    class="icon" viewBox="0 0 1024 1024" version="1.1" xmlns="http://www.w3.org/2000/svg" p-id="1514"
    xmlns:xlink="http://www.w3.org/1999/xlink" width="200" height="200">
    <path d="M 550.5 246.7 l -421 230.3 l 378.2 199.1 l 443.5 -266.3 z" fill="#ee1c25" p-id="1515">
    </path>
    <path
        d="M 277.3 406.2 L 526.7 537.1 l 68.8 -57.1 l -238.3 -124 z"
        fill="#ffff00" p-id="1517"></path>
    <path d="M 125.6 471.8 l -69.3 155.4 l 450.6 239.7 l 447.1 -265.2 l -11.9 -197.2 l -430.1 278.8 z" fill="#ffffff" p-id="1515"></path>
    <path p-id="1516" d="M 557.5 199.9 L 121.1 441.4 c -52.4 29 -84.9 84.2 -84.9 144.1 c 0 62.3 36.2 120.4 92.5 148 l 348.6 165.7 c 7.7 3.7 16 5.5 24.3 5.5 c 10 0 19.9 -2.6 28.7 -7.9 l 457.6 -269.3 V 380.6 L 557.5 199.9 z m 3.4 63.9 L 897 404.9 L 504.4 636.6 l -317.2 -166 L 560.9 263.8 z m -59 583.2 L 153.6 681.5 c -36.4 -17.8 -59.9 -55.6 -59.9 -96.1 c 0 -31 13.5 -59.8 36.1 -79.9 l 347.9 182.1 c 8.3 4.3 17.3 6.5 26.3 6.5 c 9.9 0 19.8 -2.6 28.7 -7.9 l 397.5 -234.1 v 142.3 z" fill=""/>
    <rect x="87.1" y="168.2" width="0" height="0" fill="rgb(255, 255, 255)"/>
    
</svg>